<svg width="210" height="80" viewBox="0 0 210 80" fill="none" xmlns="http://www.w3.org/2000/svg">
<path d="M41.6098 50.1606L0 74.2935L41.6098 0V50.1606Z" fill="#4E4B98"/>
<path d="M41.6101 50.1606L83.2155 74.2935L41.6101 0V50.1606Z" fill="#00A4B2"/>
<path d="M83.2152 74.2933L41.6098 50.1604L0 74.2933H83.2152Z" fill="#190F3E"/>
<path d="M121.875 43.8051L126.11 43.7786L129.494 54.2241L132.85 43.7786H136.927L131.516 58.1152H127.307L121.875 43.8051Z" fill="#031D3D"/>
<path d="M151.675 45.6419C152.872 46.9757 153.472 48.8307 153.472 51.2114C153.472 51.6398 153.464 51.9666 153.446 52.1963H143.159C143.389 53.1017 143.835 53.8084 144.493 54.3119C145.151 54.8198 145.942 55.0716 146.865 55.0716C147.541 55.0716 148.19 54.9435 148.808 54.6829C149.431 54.4267 149.988 54.0469 150.487 53.5522L152.646 55.7385C151.918 56.5556 151.034 57.1827 149.996 57.6156C148.959 58.0528 147.797 58.2693 146.52 58.2693C145.01 58.2693 143.694 57.9689 142.563 57.3638C141.437 56.7587 140.567 55.9063 139.953 54.8066C139.339 53.7068 139.034 52.4348 139.034 50.9949C139.034 49.5374 139.343 48.2566 139.966 47.1436C140.589 46.035 141.459 45.1737 142.576 44.5598C143.694 43.9459 144.975 43.6411 146.414 43.6411C148.724 43.6455 150.478 44.3125 151.675 45.6419ZM149.612 49.7715C149.577 48.8308 149.277 48.0755 148.707 47.5057C148.137 46.936 147.382 46.6533 146.441 46.6533C145.553 46.6533 144.811 46.9316 144.215 47.4925C143.619 48.0534 143.243 48.8131 143.084 49.7715H149.612Z" fill="#031D3D"/>
<path d="M164.213 44.3391C165.013 43.8753 165.945 43.6368 167.009 43.6191V47.4838C166.868 47.4661 166.656 47.4573 166.369 47.4573C165.106 47.4573 164.107 47.7973 163.37 48.4819C162.632 49.1665 162.266 50.0764 162.266 51.2115V58.1148H158.163V43.7781H162.266V46.3619C162.765 45.4742 163.414 44.7984 164.213 44.3391Z" fill="#031D3D"/>
<path d="M170.551 43.8047H182.781V46.3885L175.401 54.8862H183.02V58.1369L170.282 58.1104V55.5266L177.662 47.0289L170.547 47.0024V43.8047H170.551Z" fill="#031D3D"/>
<path d="M199.154 45.6419C200.351 46.9757 200.952 48.8307 200.952 51.2114C200.952 51.6398 200.943 51.9666 200.925 52.1963H190.639C190.868 53.1017 191.314 53.8084 191.972 54.3119C192.631 54.8198 193.421 55.0716 194.344 55.0716C195.02 55.0716 195.669 54.9435 196.288 54.6829C196.91 54.4267 197.467 54.0469 197.966 53.5522L200.126 55.7385C199.397 56.5556 198.514 57.1827 197.476 57.6156C196.438 58.0528 195.276 58.2693 194 58.2693C192.489 58.2693 191.173 57.9689 190.042 57.3638C188.916 56.7587 188.046 55.9063 187.432 54.8066C186.818 53.7068 186.513 52.4348 186.513 50.9949C186.513 49.5374 186.823 48.2566 187.445 47.1436C188.068 46.035 188.938 45.1737 190.056 44.5598C191.173 43.9459 192.454 43.6411 193.894 43.6411C196.204 43.6455 197.957 44.3125 199.154 45.6419ZM197.091 49.7715C197.056 48.8308 196.756 48.0755 196.186 47.5057C195.616 46.936 194.861 46.6533 193.92 46.6533C193.032 46.6533 192.29 46.9316 191.694 47.4925C191.098 48.0534 190.723 48.8131 190.564 49.7715H197.091Z" fill="#031D3D"/>
<path d="M205.775 38.3416H209.878V58.1108H205.775V38.3416Z" fill="#031D3D"/>
<path d="M89.2794 45.3728L49.4495 45.2756L110.215 9.49585L89.2794 45.3728Z" fill="#ABC616"/>
<path d="M89.2795 45.3728L108.974 79.9998L110.215 9.49585L89.2795 45.3728Z" fill="#6AB026"/>
<path d="M108.973 80.0001L89.2794 45.373L49.4495 45.2759L108.973 80.0001Z" fill="#210E3F"/>
</svg>
